<mxfile host="Electron" modified="2023-07-17T18:57:30.465Z" agent="Mozilla/5.0 (Macintosh; Intel Mac OS X 10_15_7) AppleWebKit/537.36 (KHTML, like Gecko) draw.io/21.6.1 Chrome/112.0.5615.204 Electron/24.6.1 Safari/537.36" etag="SLutlE448aTy0qgbip3d" version="21.6.1" type="device">
  <diagram name="Page-1" id="uMUOxPm49nFAWW3pjG4Z">
    <mxGraphModel dx="1114" dy="824" grid="1" gridSize="10" guides="1" tooltips="1" connect="1" arrows="1" fold="1" page="1" pageScale="1" pageWidth="827" pageHeight="1169" math="0" shadow="0">
      <root>
        <mxCell id="0" />
        <mxCell id="1" parent="0" />
        <mxCell id="ttfSkIFC_cEZM1mPmyBW-1" value="&lt;b style=&quot;font-size: 14px;&quot;&gt;Web Application&lt;br&gt;(Client)&lt;/b&gt;" style="rounded=1;whiteSpace=wrap;html=1;fillColor=#dae8fc;strokeColor=#6c8ebf;gradientColor=#FFFFFF;sketch=1;curveFitting=1;jiggle=2;" vertex="1" parent="1">
          <mxGeometry x="360" y="170" width="140" height="60" as="geometry" />
        </mxCell>
        <mxCell id="ttfSkIFC_cEZM1mPmyBW-2" value="&lt;font style=&quot;font-size: 14px;&quot;&gt;&lt;b&gt;User&lt;br&gt;(Resource owner)&lt;/b&gt;&lt;/font&gt;" style="image;aspect=fixed;html=1;points=[];align=center;fontSize=12;image=img/lib/azure2/identity/Users.svg;sketch=1;curveFitting=1;jiggle=2;" vertex="1" parent="1">
          <mxGeometry x="120" y="270" width="64" height="70" as="geometry" />
        </mxCell>
        <mxCell id="ttfSkIFC_cEZM1mPmyBW-5" value="&lt;b style=&quot;font-size: 14px;&quot;&gt;&lt;span style=&quot;&quot;&gt;Authorization Server&lt;br&gt;&lt;/span&gt;(Keycloak)&lt;/b&gt;" style="rounded=1;whiteSpace=wrap;html=1;fillColor=#f8cecc;strokeColor=#b85450;gradientColor=#FFFFFF;sketch=1;curveFitting=1;jiggle=2;" vertex="1" parent="1">
          <mxGeometry x="360" y="420" width="140" height="60" as="geometry" />
        </mxCell>
        <mxCell id="ttfSkIFC_cEZM1mPmyBW-6" value="&lt;b style=&quot;font-size: 14px;&quot;&gt;&lt;span style=&quot;&quot;&gt;Resource server&lt;br&gt;&lt;/span&gt;(SpringBoot App)&lt;/b&gt;" style="rounded=1;whiteSpace=wrap;html=1;fillColor=#d5e8d4;strokeColor=#82b366;gradientColor=#FFFFFF;sketch=1;curveFitting=1;jiggle=2;" vertex="1" parent="1">
          <mxGeometry x="650" y="300" width="140" height="60" as="geometry" />
        </mxCell>
        <mxCell id="ttfSkIFC_cEZM1mPmyBW-7" value="" style="endArrow=classic;html=1;rounded=0;strokeWidth=2;entryX=0.35;entryY=-0.017;entryDx=0;entryDy=0;entryPerimeter=0;dashed=1;sketch=1;curveFitting=1;jiggle=2;" edge="1" parent="1">
          <mxGeometry width="50" height="50" relative="1" as="geometry">
            <mxPoint x="411" y="260" as="sourcePoint" />
            <mxPoint x="411" y="378.98" as="targetPoint" />
          </mxGeometry>
        </mxCell>
        <mxCell id="ttfSkIFC_cEZM1mPmyBW-9" value="" style="endArrow=classic;html=1;rounded=0;strokeWidth=2;dashed=1;sketch=1;curveFitting=1;jiggle=2;" edge="1" parent="1">
          <mxGeometry width="50" height="50" relative="1" as="geometry">
            <mxPoint x="442" y="372" as="sourcePoint" />
            <mxPoint x="442" y="258" as="targetPoint" />
          </mxGeometry>
        </mxCell>
        <mxCell id="ttfSkIFC_cEZM1mPmyBW-11" value="" style="endArrow=classic;html=1;rounded=0;strokeWidth=2;dashed=1;sketch=1;curveFitting=1;jiggle=2;" edge="1" parent="1">
          <mxGeometry width="50" height="50" relative="1" as="geometry">
            <mxPoint x="630" y="292" as="sourcePoint" />
            <mxPoint x="520" y="222" as="targetPoint" />
          </mxGeometry>
        </mxCell>
        <mxCell id="ttfSkIFC_cEZM1mPmyBW-12" value="" style="endArrow=classic;html=1;rounded=0;strokeWidth=2;sketch=1;curveFitting=1;jiggle=2;" edge="1" parent="1">
          <mxGeometry width="50" height="50" relative="1" as="geometry">
            <mxPoint x="540" y="200" as="sourcePoint" />
            <mxPoint x="650" y="270" as="targetPoint" />
          </mxGeometry>
        </mxCell>
        <mxCell id="ttfSkIFC_cEZM1mPmyBW-13" value="" style="endArrow=classic;html=1;rounded=0;strokeWidth=2;dashed=1;sketch=1;curveFitting=1;jiggle=2;" edge="1" parent="1">
          <mxGeometry width="50" height="50" relative="1" as="geometry">
            <mxPoint x="330" y="230" as="sourcePoint" />
            <mxPoint x="210" y="290" as="targetPoint" />
          </mxGeometry>
        </mxCell>
        <mxCell id="ttfSkIFC_cEZM1mPmyBW-14" value="" style="endArrow=classic;html=1;rounded=0;strokeWidth=2;sketch=1;curveFitting=1;jiggle=2;" edge="1" parent="1">
          <mxGeometry width="50" height="50" relative="1" as="geometry">
            <mxPoint x="199" y="267" as="sourcePoint" />
            <mxPoint x="319" y="207" as="targetPoint" />
          </mxGeometry>
        </mxCell>
        <mxCell id="ttfSkIFC_cEZM1mPmyBW-16" style="edgeStyle=orthogonalEdgeStyle;rounded=0;orthogonalLoop=1;jettySize=auto;html=1;entryX=0.5;entryY=1;entryDx=0;entryDy=0;sketch=1;curveFitting=1;jiggle=2;" edge="1" parent="1" source="ttfSkIFC_cEZM1mPmyBW-15" target="ttfSkIFC_cEZM1mPmyBW-6">
          <mxGeometry relative="1" as="geometry" />
        </mxCell>
        <mxCell id="ttfSkIFC_cEZM1mPmyBW-15" value="" style="image;aspect=fixed;perimeter=ellipsePerimeter;html=1;align=center;shadow=0;dashed=0;spacingTop=3;image=img/lib/active_directory/databases.svg;imageBackground=#FF6666;sketch=1;curveFitting=1;jiggle=2;" vertex="1" parent="1">
          <mxGeometry x="695" y="400" width="50" height="49" as="geometry" />
        </mxCell>
        <mxCell id="ttfSkIFC_cEZM1mPmyBW-17" value="" style="endArrow=classic;html=1;rounded=0;strokeWidth=2;sketch=1;curveFitting=1;jiggle=2;" edge="1" parent="1">
          <mxGeometry width="50" height="50" relative="1" as="geometry">
            <mxPoint x="630" y="370" as="sourcePoint" />
            <mxPoint x="530" y="420" as="targetPoint" />
          </mxGeometry>
        </mxCell>
        <mxCell id="ttfSkIFC_cEZM1mPmyBW-18" value="" style="endArrow=classic;html=1;rounded=0;strokeWidth=2;dashed=1;sketch=1;curveFitting=1;jiggle=2;" edge="1" parent="1">
          <mxGeometry width="50" height="50" relative="1" as="geometry">
            <mxPoint x="540" y="440" as="sourcePoint" />
            <mxPoint x="640" y="390" as="targetPoint" />
          </mxGeometry>
        </mxCell>
        <mxCell id="ttfSkIFC_cEZM1mPmyBW-19" value="&lt;font style=&quot;font-size: 14px;&quot;&gt;Request&lt;/font&gt;" style="text;html=1;strokeColor=none;fillColor=none;align=center;verticalAlign=middle;whiteSpace=wrap;rounded=0;rotation=332;sketch=1;curveFitting=1;jiggle=2;" vertex="1" parent="1">
          <mxGeometry x="202" y="212" width="60" height="27" as="geometry" />
        </mxCell>
        <mxCell id="ttfSkIFC_cEZM1mPmyBW-20" value="&lt;font style=&quot;font-size: 14px;&quot;&gt;Response&lt;/font&gt;" style="text;html=1;strokeColor=none;fillColor=none;align=center;verticalAlign=middle;whiteSpace=wrap;rounded=0;rotation=332;sketch=1;curveFitting=1;jiggle=2;" vertex="1" parent="1">
          <mxGeometry x="240" y="260" width="60" height="27" as="geometry" />
        </mxCell>
        <mxCell id="ttfSkIFC_cEZM1mPmyBW-21" value="&lt;font style=&quot;font-size: 14px;&quot;&gt;Response&lt;/font&gt;" style="text;html=1;strokeColor=none;fillColor=none;align=center;verticalAlign=middle;whiteSpace=wrap;rounded=0;rotation=32;sketch=1;curveFitting=1;jiggle=2;" vertex="1" parent="1">
          <mxGeometry x="530" y="260" width="60" height="27" as="geometry" />
        </mxCell>
        <mxCell id="ttfSkIFC_cEZM1mPmyBW-22" value="&lt;font style=&quot;font-size: 14px;&quot;&gt;Response&lt;/font&gt;" style="text;html=1;strokeColor=none;fillColor=none;align=center;verticalAlign=middle;whiteSpace=wrap;rounded=0;rotation=332;sketch=1;curveFitting=1;jiggle=2;" vertex="1" parent="1">
          <mxGeometry x="566" y="418" width="60" height="27" as="geometry" />
        </mxCell>
        <mxCell id="ttfSkIFC_cEZM1mPmyBW-23" value="&lt;font style=&quot;font-size: 14px;&quot;&gt;Redirect&lt;br&gt;Action&lt;/font&gt;" style="text;html=1;strokeColor=none;fillColor=none;align=center;verticalAlign=middle;whiteSpace=wrap;rounded=0;sketch=1;curveFitting=1;jiggle=2;" vertex="1" parent="1">
          <mxGeometry x="340" y="300" width="60" height="30" as="geometry" />
        </mxCell>
        <mxCell id="ttfSkIFC_cEZM1mPmyBW-25" value="&lt;font style=&quot;font-size: 14px;&quot;&gt;Access&lt;br&gt;Token&lt;/font&gt;" style="text;html=1;strokeColor=none;fillColor=none;align=center;verticalAlign=middle;whiteSpace=wrap;rounded=0;sketch=1;curveFitting=1;jiggle=2;" vertex="1" parent="1">
          <mxGeometry x="450" y="300" width="60" height="30" as="geometry" />
        </mxCell>
        <mxCell id="ttfSkIFC_cEZM1mPmyBW-26" value="&lt;font style=&quot;font-size: 14px;&quot;&gt;Authorized Request&lt;/font&gt;" style="text;html=1;strokeColor=none;fillColor=none;align=center;verticalAlign=middle;whiteSpace=wrap;rounded=0;rotation=33;sketch=1;curveFitting=1;jiggle=2;" vertex="1" parent="1">
          <mxGeometry x="520" y="200" width="160" height="27" as="geometry" />
        </mxCell>
        <mxCell id="ttfSkIFC_cEZM1mPmyBW-27" value="&lt;font style=&quot;font-size: 14px;&quot;&gt;Get JWK&lt;/font&gt;" style="text;html=1;strokeColor=none;fillColor=none;align=center;verticalAlign=middle;whiteSpace=wrap;rounded=0;rotation=332;sketch=1;curveFitting=1;jiggle=2;" vertex="1" parent="1">
          <mxGeometry x="540" y="370" width="60" height="27" as="geometry" />
        </mxCell>
      </root>
    </mxGraphModel>
  </diagram>
</mxfile>
